<?xml version="1.0" encoding="utf-8"?>
<svg version="1.0" width="1407.000000pt" height="1564.000000pt" viewBox="0 0 1467.088 1564" preserveAspectRatio="xMidYMid meet" style="" xmlns="http://www.w3.org/2000/svg" xmlns:bx="https://boxy-svg.com">
  <defs>
    <bx:guide x="1139.541889070132" y="559.6023314702688" angle="0"/>
    <style bx:fonts="Roboto">@import url(https://fonts.googleapis.com/css2?family=Roboto%3Aital%2Cwght%400%2C100%3B0%2C300%3B0%2C400%3B0%2C500%3B0%2C700%3B0%2C900%3B1%2C100%3B1%2C300%3B1%2C400%3B1%2C500%3B1%2C700%3B1%2C900&amp;display=swap);</style>
  </defs>
  <g transform="translate(0.000000,1564.000000) scale(0.100000,-0.100000)" fill="#000000" stroke="none">
    <ellipse style="stroke: rgb(0, 0, 0); fill: rgb(54, 68, 69);" transform="matrix(1, 0, 0, -1, 0, 0)" cx="7024.899" cy="-8900.598" rx="6430.827" ry="6426.041"/>
    <ellipse style="stroke: rgb(0, 0, 0); fill: rgb(255, 255, 255); fill-rule: nonzero;" transform="matrix(1, 0, 0, -1, 0, 0)" cx="6935.098" cy="-8890.442" rx="5915.859" ry="6031.261"/>
    <path d="M6605 15300 c-22 -4 -35 -9 -30 -10 6 -2 -63 -6 -153 -9 -106 -4&#10;-165 -10 -170 -17 -4 -7 -45 -13 -101 -15 -64 -3 -96 -8 -99 -16 -2 -9 -26&#10;-13 -70 -13 -75 0 -114 -8 -106 -21 3 -5 -22 -9 -55 -9 -40 0 -65 -5 -75 -15&#10;-10 -10 -35 -15 -75 -15 -40 0 -65 -5 -75 -15 -8 -9 -33 -15 -60 -15 -26 0&#10;-51 -6 -60 -15 -8 -9 -33 -15 -60 -15 -26 0 -51 -6 -60 -15 -8 -8 -30 -15 -50&#10;-15 -20 0 -38 -6 -43 -14 -5 -8 -27 -16 -52 -18 -48 -3 -71 -28 -27 -28 14 0&#10;26 -4 26 -10 0 -5 -6 -10 -14 -10 -8 0 -21 -3 -30 -6 -11 -4 -16 -1 -16 10 0&#10;11 -9 16 -27 16 -40 0 -74 -11 -67 -21 3 -5 -7 -9 -23 -9 -15 0 -39 -3 -51 -7&#10;-30 -7 -10 -23 31 -23 35 0 28 -15 -10 -23 -16 -3 -37 -9 -48 -13 -16 -6 -15&#10;-3 5 14 l25 21 -38 1 c-24 0 -40 -5 -43 -15 -4 -10 -20 -15 -45 -15 -26 0 -42&#10;-5 -45 -15 -4 -10 -20 -15 -45 -15 -26 0 -42 -5 -45 -15 -4 -8 -18 -15 -33&#10;-16 -14 0 -35 -4 -46 -9 -18 -7 -16 -9 13 -15 42 -10 40 -19 -8 -39 -52 -21&#10;-75 -20 -32 0 17 9 32 20 32 25 0 16 -70 10 -76 -6 -4 -9 -19 -15 -35 -15 -19&#10;0 -29 -5 -29 -15 0 -11 -11 -15 -40 -15 -27 0 -43 -5 -46 -15 -4 -8 -17 -15&#10;-30 -15 -14 0 -27 -7 -30 -15 -4 -8 -17 -15 -30 -15 -14 0 -27 -7 -30 -15 -4&#10;-8 -17 -15 -30 -15 -14 0 -27 -7 -30 -15 -4 -8 -19 -15 -34 -15 -37 0 -47 -16&#10;-19 -31 17 -9 19 -13 8 -20 -21 -13 -29 -11 -23 6 5 11 -1 15 -25 15 -21 0&#10;-31 -5 -31 -15 0 -10 -10 -15 -30 -15 -20 0 -30 -5 -30 -15 0 -9 -9 -15 -25&#10;-15 -14 0 -28 -7 -31 -15 -4 -8 -17 -15 -30 -15 -14 0 -27 -7 -30 -15 -4 -8&#10;-17 -15 -30 -15 -12 0 -27 -6 -31 -14 -4 -8 -19 -16 -33 -18 -14 -2 -24 -9&#10;-22 -16 1 -6 -7 -12 -18 -12 -11 0 -20 -7 -20 -15 0 -9 -9 -15 -25 -15 -14 0&#10;-28 -7 -31 -15 -4 -8 -17 -15 -30 -15 -14 0 -27 -7 -30 -15 -4 -8 -15 -15 -25&#10;-15 -11 0 -22 -7 -25 -15 -4 -8 -13 -15 -20 -15 -8 0 -17 -7 -20 -15 -4 -8&#10;-17 -15 -30 -15 -15 0 -24 -6 -24 -15 0 -8 -7 -15 -15 -15 -9 0 -18 -7 -21&#10;-15 -4 -8 -15 -15 -25 -15 -11 0 -33 -13 -49 -30 -16 -16 -37 -30 -47 -30 -10&#10;-1 -29 -14 -43 -30 -13 -17 -32 -30 -42 -30 -10 0 -21 -7 -24 -15 -4 -8 -11&#10;-15 -18 -15 -6 -1 -22 -14 -36 -30 -13 -17 -32 -30 -42 -30 -10 0 -38 -20 -61&#10;-45 -24 -25 -50 -45 -58 -45 -9 0 -47 -31 -87 -69 -39 -38 -80 -72 -91 -76&#10;-11 -3 -59 -44 -107 -91 -47 -46 -90 -84 -95 -84 -5 0 -9 -7 -9 -15 0 -8 -7&#10;-15 -15 -15 -17 0 -21 -26 -5 -32 13 -4 -172 -198 -189 -198 -7 0 -9 5 -6 10&#10;3 6 -1 10 -9 10 -9 0 -16 -7 -16 -15 0 -8 -7 -15 -15 -15 -8 0 -15 -7 -15 -15&#10;0 -8 -7 -15 -15 -15 -8 0 -15 -7 -15 -15 0 -8 -7 -15 -15 -15 -8 0 -15 -7 -15&#10;-15 0 -8 -7 -15 -15 -15 -8 0 -15 -4 -15 -9 0 -5 -33 -43 -72 -84 -77 -78&#10;-108 -116 -108 -129 0 -5 -20 -28 -45 -51 -25 -24 -45 -49 -45 -55 0 -7 -4&#10;-12 -10 -12 -5 0 -12 -11 -16 -25 -3 -14 -12 -25 -20 -25 -8 0 -14 -4 -14 -10&#10;0 -5 -14 -23 -30 -40 -17 -17 -30 -37 -30 -45 0 -8 -14 -28 -30 -45 -17 -17&#10;-30 -37 -30 -44 0 -8 -7 -16 -15 -20 -8 -3 -15 -10 -15 -16 0 -6 -11 -21 -24&#10;-33 -13 -12 -26 -32 -30 -45 -4 -12 -18 -34 -31 -48 -14 -15 -27 -36 -31 -47&#10;-4 -12 -12 -27 -18 -34 -28 -32 -36 -43 -36 -51 0 -5 -9 -19 -20 -32 -11 -13&#10;-20 -30 -20 -38 0 -8 -11 -25 -24 -37 -13 -12 -27 -32 -31 -45 -4 -13 -14 -30&#10;-22 -38 -8 -8 -12 -21 -9 -28 3 -8 -1 -14 -9 -14 -8 0 -15 -6 -15 -14 0 -7 -7&#10;-19 -15 -26 -8 -7 -15 -21 -15 -32 0 -10 -7 -21 -15 -24 -8 -4 -15 -17 -15&#10;-30 0 -14 -7 -27 -15 -30 -8 -4 -15 -16 -15 -29 0 -13 -7 -25 -15 -29 -8 -3&#10;-15 -17 -15 -31 0 -16 -6 -25 -15 -25 -10 0 -15 -10 -15 -30 0 -20 -5 -30 -15&#10;-30 -10 0 -15 -10 -15 -30 0 -20 -5 -30 -15 -30 -9 0 -15 -9 -15 -25 0 -16 6&#10;-25 15 -25 13 0 14 -4 4 -22 -11 -20 -13 -20 -24 -5 -18 25 -25 21 -25 -13 0&#10;-20 -5 -30 -15 -30 -10 0 -15 -10 -15 -29 0 -16 -6 -31 -15 -35 -8 -3 -15 -16&#10;-15 -30 0 -13 -7 -26 -15 -30 -18 -6 -20 -67 -4 -83 13 -13 5 -43 -12 -43 -7&#10;0 -9 9 -5 26 5 19 3 25 -6 22 -7 -3 -14 -19 -16 -37 -2 -18 -10 -35 -18 -38&#10;-8 -3 -14 -19 -14 -38 0 -20 -6 -35 -15 -39 -9 -3 -15 -18 -15 -35 0 -16 -6&#10;-31 -15 -35 -10 -3 -15 -19 -15 -46 0 -29 -4 -40 -15 -40 -11 0 -15 -12 -15&#10;-45 0 -33 -4 -45 -15 -45 -10 0 -15 -11 -15 -35 0 -23 -4 -34 -13 -33 -8 2&#10;-13 -14 -15 -47 -2 -30 -9 -53 -18 -58 -9 -5 -14 -24 -14 -52 0 -33 -4 -45&#10;-15 -45 -11 0 -15 -12 -15 -50 0 -35 -4 -49 -12 -48 -9 2 -15 -16 -18 -55 -3&#10;-31 -9 -56 -15 -55 -6 2 -11 -23 -13 -57 -2 -39 -8 -63 -18 -68 -9 -5 -14 -25&#10;-14 -62 0 -39 -4 -54 -12 -53 -9 2 -15 -19 -19 -67 -3 -38 -6 -65 -7 -60 -1 6&#10;-7 3 -12 -5 -5 -8 -10 -43 -10 -76 0 -46 -4 -63 -15 -68 -12 -4 -15 -25 -15&#10;-96 0 -53 4 -90 10 -90 15 0 12 -34 -6 -56 -14 -18 -15 -17 -9 18 6 37 -8 61&#10;-19 32 -3 -9 -6 -63 -6 -120 0 -60 -4 -103 -9 -100 -17 11 -21 -26 -21 -189 0&#10;-104 4 -165 10 -167 7 -2 8 -16 1 -43 l-9 -40 -1 42 c-1 44 -15 64 -25 37 -8&#10;-20 -8 -702 0 -731 4 -13 10 -20 15 -17 5 3 9 -71 9 -170 0 -173 4 -211 21&#10;-200 5 3 9 -40 9 -98 0 -57 5 -110 10 -118 5 -8 10 -10 11 -5 1 6 2 16 3 22 2&#10;18 20 17 24 -1 2 -9 -1 -16 -7 -16 -12 0 -16 -146 -5 -174 9 -23 23 -10 17 15&#10;-4 16 -2 20 8 17 17 -5 25 -48 10 -48 -18 0 -14 -127 3 -137 10 -6 16 -30 18&#10;-78 2 -49 7 -69 16 -67 8 1 12 -15 12 -58 0 -45 4 -62 15 -66 11 -5 15 -21 15&#10;-60 0 -39 4 -56 15 -60 11 -4 15 -21 15 -55 0 -35 4 -51 15 -55 10 -4 15 -20&#10;15 -50 0 -30 5 -46 15 -50 10 -4 15 -20 15 -45 0 -26 5 -42 15 -45 10 -4 15&#10;-20 15 -45 0 -26 5 -42 15 -45 10 -4 15 -20 15 -45 0 -26 5 -42 15 -45 10 -4&#10;15 -20 15 -45 0 -26 5 -42 15 -45 10 -4 15 -20 15 -45 0 -28 4 -39 15 -39 10&#10;0 15 -10 15 -30 0 -18 6 -33 15 -36 10 -4 15 -20 15 -45 0 -28 4 -39 15 -39&#10;10 0 15 -10 15 -30 0 -18 6 -33 15 -36 8 -4 15 -18 15 -34 0 -16 7 -35 15 -44&#10;8 -8 15 -26 15 -40 0 -16 6 -26 15 -26 10 0 15 -10 15 -29 0 -16 6 -31 15 -35&#10;8 -3 15 -16 15 -30 0 -13 7 -26 15 -30 8 -3 15 -16 15 -30 0 -13 7 -26 15 -30&#10;8 -3 15 -16 15 -30 0 -13 7 -26 15 -30 8 -3 15 -16 15 -30 0 -13 7 -26 15 -30&#10;8 -3 15 -16 15 -30 0 -13 7 -26 15 -30 8 -3 15 -16 15 -30 0 -13 7 -26 15 -30&#10;8 -3 15 -14 15 -25 0 -10 7 -21 15 -25 8 -3 15 -12 15 -21 0 -8 4 -15 9 -15 5&#10;0 12 -12 15 -26 4 -15 14 -33 21 -41 8 -8 15 -23 15 -34 0 -10 4 -19 9 -19 5&#10;0 13 -10 17 -22 3 -12 12 -28 18 -35 27 -30 34 -41 40 -59 3 -10 17 -31 30&#10;-45 13 -14 27 -36 31 -50 4 -13 18 -33 30 -45 13 -11 26 -31 30 -42 3 -12 11&#10;-22 16 -22 5 0 9 -7 9 -15 0 -9 6 -18 14 -21 8 -3 17 -16 20 -30 4 -13 11 -24&#10;16 -24 6 0 10 -6 10 -13 0 -7 13 -24 29 -38 15 -14 31 -35 35 -47 4 -12 12&#10;-22 17 -22 5 0 9 -6 9 -13 0 -7 13 -24 29 -38 15 -14 31 -35 35 -47 4 -12 11&#10;-22 16 -22 4 0 10 -9 13 -21 3 -12 10 -18 16 -14 6 3 11 0 11 -7 0 -8 13 -25&#10;30 -38 16 -14 29 -30 30 -37 0 -7 13 -26 30 -43 16 -17 30 -35 30 -40 0 -6 6&#10;-10 14 -10 7 0 16 -9 19 -21 3 -12 10 -18 15 -15 5 3 12 -4 15 -15 3 -12 10&#10;-18 15 -15 5 3 12 -4 15 -15 3 -12 10 -18 16 -14 6 3 11 -1 11 -10 0 -8 6 -18&#10;14 -21 8 -3 17 -17 20 -30 4 -14 11 -22 16 -19 6 3 10 0 10 -7 0 -8 13 -25 30&#10;-38 16 -14 29 -31 30 -37 0 -7 7 -13 15 -13 8 0 15 -7 15 -15 0 -8 7 -15 15&#10;-15 8 0 15 -7 15 -15 0 -8 7 -15 15 -15 8 0 15 -7 15 -15 0 -8 7 -15 15 -15 8&#10;0 15 -7 15 -15 0 -8 7 -15 15 -15 8 0 15 -7 15 -15 0 -8 7 -15 15 -15 8 0 15&#10;-7 15 -15 0 -8 7 -15 15 -15 8 0 15 -7 15 -15 0 -8 7 -15 15 -15 8 0 15 -7 15&#10;-15 0 -8 4 -15 9 -15 5 0 37 -27 71 -60 58 -56 90 -74 90 -50 0 6 -3 10 -7 10&#10;-5 0 -21 16 -37 36 l-29 36 27 -17 c14 -10 26 -21 26 -25 0 -4 11 -12 25 -18&#10;24 -11 35 -42 15 -42 -5 0 -10 -4 -10 -10 0 -5 7 -10 15 -10 8 0 15 -7 15 -15&#10;0 -8 7 -15 15 -15 8 0 15 -7 15 -15 0 -8 7 -15 15 -15 8 0 15 -7 15 -15 0 -8&#10;4 -15 10 -15 5 0 23 -13 40 -30 17 -17 40 -30 50 -30 11 0 20 -7 20 -15 0 -8&#10;7 -15 15 -15 8 0 15 -7 15 -15 0 -8 7 -15 15 -15 8 0 15 -7 15 -15 0 -8 5 -15&#10;11 -15 6 0 17 -7 25 -15 9 -8 24 -15 35 -15 10 0 19 -7 19 -15 0 -8 6 -15 14&#10;-15 8 0 16 -7 20 -15 3 -8 14 -15 25 -15 10 0 21 -7 25 -15 3 -8 13 -15 21&#10;-15 9 0 13 -5 10 -11 -4 -6 2 -13 13 -16 11 -3 23 -11 26 -19 3 -8 17 -14 31&#10;-14 16 0 24 -4 20 -11 -4 -6 2 -13 13 -16 11 -3 23 -11 26 -19 3 -8 14 -14 25&#10;-14 10 0 21 -7 25 -15 3 -8 12 -15 20 -15 7 0 16 -7 20 -15 3 -8 14 -15 25&#10;-15 10 0 21 -7 25 -15 3 -8 12 -15 21 -15 8 0 15 -4 15 -10 0 -5 11 -12 25&#10;-16 14 -3 25 -10 25 -15 0 -5 8 -13 18 -16 9 -4 23 -13 30 -20 7 -7 22 -13 33&#10;-13 11 0 17 -5 14 -10 -4 -6 7 -13 24 -16 16 -4 32 -12 35 -20 3 -8 15 -14 26&#10;-14 12 0 19 -4 16 -9 -4 -5 7 -12 24 -16 16 -4 30 -10 30 -15 0 -5 10 -12 22&#10;-16 12 -3 28 -13 36 -20 7 -8 22 -14 33 -14 10 0 19 -4 19 -10 0 -5 12 -13 27&#10;-16 15 -4 34 -13 41 -21 7 -7 22 -13 33 -13 10 0 19 -4 19 -10 0 -5 12 -13 27&#10;-16 15 -4 34 -13 41 -21 7 -7 22 -13 33 -13 10 0 19 -4 19 -9 0 -5 13 -12 30&#10;-16 16 -4 30 -11 30 -16 0 -5 8 -9 18 -9 10 0 27 -7 38 -15 10 -8 27 -15 36&#10;-15 9 0 23 -6 30 -13 7 -8 30 -17 51 -21 20 -4 37 -11 37 -16 0 -6 11 -10 25&#10;-10 14 0 28 -7 31 -15 4 -8 18 -15 34 -15 16 0 35 -7 44 -15 8 -8 26 -15 41&#10;-15 14 0 28 -7 31 -15 4 -10 20 -15 45 -15 26 0 42 -5 45 -15 4 -10 20 -15 45&#10;-15 26 0 42 -5 45 -15 4 -9 19 -15 40 -15 22 0 37 -6 40 -15 4 -10 20 -15 50&#10;-15 30 0 46 -5 50 -15 4 -10 20 -15 50 -15 32 0 44 -4 44 -15 0 -11 12 -15 44&#10;-15 30 0 46 -5 50 -15 4 -11 21 -15 61 -15 42 0 55 -3 55 -15 0 -11 13 -15 54&#10;-15 39 0 55 -4 60 -15 4 -11 21 -15 65 -15 43 0 60 -4 65 -15 4 -11 22 -15 75&#10;-15 52 0 70 -4 75 -15 4 -12 24 -15 91 -15 63 0 84 -3 83 -13 -2 -9 27 -13&#10;107 -18 61 -3 106 -6 100 -7 -5 -1 -3 -7 5 -12 8 -5 86 -10 173 -10 100 0 156&#10;-4 152 -10 -3 -5 4 -12 17 -15 43 -10 1013 -1 1008 10 -3 6 53 12 155 15 121&#10;4 159 8 157 18 -1 9 26 12 113 12 94 0 117 3 121 15 5 11 23 15 75 15 53 0 71&#10;4 75 15 5 11 23 15 75 15 53 0 71 4 75 15 5 11 22 15 65 15 44 0 61 4 65 15 5&#10;11 21 15 59 15 59 0 88 8 79 21 -3 5 15 9 41 9 31 0 47 5 51 15 4 11 21 15 59&#10;15 38 0 55 4 59 15 3 10 19 15 46 15 27 0 43 5 46 15 4 11 21 15 59 15 38 0&#10;55 4 59 15 3 9 18 15 34 15 16 0 35 7 42 15 8 9 29 15 55 15 29 0 45 5 49 15&#10;3 8 17 15 31 15 15 0 33 7 41 15 9 8 31 15 50 15 24 0 34 5 34 15 0 11 11 15&#10;39 15 25 0 41 5 45 15 3 9 18 15 36 15 18 0 30 5 30 13 0 7 14 14 31 15 17 1&#10;41 9 52 17 12 8 29 15 39 15 10 0 18 4 18 9 0 5 14 12 30 16 17 4 30 10 30 15&#10;0 4 16 11 35 14 19 4 35 11 35 15 0 5 16 12 35 15 19 4 35 11 35 16 0 4 14 11&#10;30 15 17 4 30 10 30 15 0 5 14 11 30 15 17 4 30 10 30 15 0 4 11 11 25 14 14&#10;4 25 11 25 16 0 6 9 10 20 10 11 0 23 7 26 15 4 8 17 15 30 15 14 0 27 7 30&#10;15 4 8 14 15 24 15 10 0 25 6 32 14 8 7 24 17 36 20 12 4 22 12 22 17 0 5 7 9&#10;15 9 9 0 18 7 21 15 4 8 17 15 30 15 14 0 27 7 30 15 4 8 15 15 25 15 10 0 32&#10;13 49 30 17 17 40 30 51 30 11 0 22 6 25 14 3 8 16 17 30 20 13 4 24 11 24 16&#10;0 6 7 10 15 10 9 0 18 6 21 14 3 8 16 17 30 20 13 4 24 11 24 16 0 6 7 10 15&#10;10 9 0 18 7 21 15 4 8 12 15 20 15 8 0 14 7 14 15 0 9 9 15 23 15 12 0 34 13&#10;48 29 14 15 35 31 47 35 12 4 22 12 22 17 0 5 6 9 13 9 7 0 24 13 38 29 14 15&#10;35 31 47 35 12 4 22 12 22 17 0 5 6 9 13 9 7 0 24 13 37 30 14 16 31 29 38 30&#10;6 0 12 7 12 15 0 8 9 15 20 15 11 0 23 7 26 15 4 8 11 15 17 15 5 0 36 27 69&#10;60 32 33 62 60 67 60 5 0 23 14 39 30 17 17 33 30 35 30 10 0 377 371 377 381&#10;0 5 7 9 15 9 8 0 15 5 15 10 0 6 8 19 18 29 30 34 42 50 42 57 0 4 27 33 60&#10;66 33 32 60 62 60 67 0 5 7 11 15 15 8 3 15 12 15 21 0 8 20 35 45 58 25 24&#10;45 49 45 55 0 7 7 12 15 12 8 0 15 6 15 14 0 8 7 16 15 20 8 3 15 13 15 23 1&#10;10 14 29 30 43 29 23 42 70 20 70 -5 0 -10 -4 -10 -10 0 -5 -4 -10 -10 -10 -6&#10;0 -5 10 2 25 12 28 28 33 28 10 0 -8 7 -15 15 -15 8 0 15 6 15 14 0 8 7 16 15&#10;20 8 3 15 12 15 20 0 7 7 16 15 20 8 3 15 15 15 26 0 11 7 20 15 20 8 0 15 6&#10;15 14 0 8 7 16 15 20 8 3 15 17 15 31 0 16 6 25 15 25 8 0 15 6 15 14 0 8 7&#10;16 15 20 8 3 15 16 15 30 0 13 7 26 15 30 8 3 15 12 15 20 0 7 7 16 15 20 8 3&#10;15 14 15 25 0 10 7 21 15 25 8 3 15 17 15 31 0 14 5 24 12 23 6 -2 14 6 16 17&#10;2 11 10 24 18 28 8 4 14 16 14 26 0 11 7 21 15 25 8 3 15 16 15 30 0 13 7 26&#10;15 30 8 3 15 17 15 31 0 16 6 25 15 25 10 0 15 10 15 30 0 20 5 30 15 30 9 0&#10;15 9 15 24 0 13 7 26 15 30 8 3 15 13 15 21 0 9 7 23 15 31 8 9 15 24 15 34 0&#10;10 7 20 15 24 8 3 15 17 15 31 0 15 4 23 10 20 5 -3 12 12 16 34 3 22 13 42&#10;20 45 8 3 14 19 14 35 0 16 6 31 15 35 8 3 15 16 15 30 0 13 7 26 15 30 8 3&#10;15 15 15 26 0 12 7 28 15 36 8 9 15 28 15 44 0 16 7 30 15 34 8 3 15 17 15 31&#10;0 15 7 33 15 41 8 9 15 28 15 44 0 16 7 30 15 34 8 3 15 17 15 31 0 15 7 33&#10;15 41 8 9 15 29 15 45 0 17 7 37 15 45 8 9 15 31 15 50 0 19 4 33 9 30 12 -8&#10;21 18 21 60 0 20 4 33 9 30 10 -7 21 27 21 66 0 14 5 28 11 30 6 2 13 25 16&#10;51 3 25 9 45 13 42 9 -5 20 44 20 85 0 16 5 30 10 32 6 2 13 21 17 43 3 22 10&#10;43 15 46 5 3 11 30 15 60 3 30 10 57 14 60 5 3 12 33 15 67 4 34 10 62 15 62&#10;4 0 11 30 15 68 3 37 10 69 15 72 5 3 11 38 15 78 4 40 10 72 14 72 5 0 11 41&#10;15 90 4 50 10 90 15 90 4 0 10 57 13 127 4 70 11 129 15 132 5 3 12 95 14 204&#10;4 126 10 202 17 211 15 18 14 453 0 458 -6 2 -13 82 -16 198 -3 107 -9 197&#10;-14 200 -4 3 -11 72 -15 153 -4 81 -10 147 -14 147 -5 0 -11 41 -15 90 -4 50&#10;-11 90 -15 90 -4 0 -11 34 -15 75 -4 41 -11 75 -16 75 -5 0 -9 13 -9 29 0 49&#10;-12 121 -20 116 -4 -2 -10 23 -14 57 -3 34 -10 64 -15 67 -4 3 -11 32 -15 64&#10;-4 31 -11 55 -15 52 -5 -2 -11 16 -14 41 -2 26 -9 49 -14 53 -6 3 -13 28 -16&#10;56 -3 27 -10 51 -16 53 -6 2 -11 21 -11 42 0 21 -7 45 -15 54 -8 8 -15 28 -15&#10;45 0 16 -7 36 -15 45 -8 8 -15 28 -15 45 0 16 -6 36 -13 43 -8 7 -17 31 -20&#10;53 -4 22 -11 41 -17 43 -5 2 -10 16 -10 32 0 16 -7 35 -15 44 -8 8 -15 26 -15&#10;41 0 14 -7 28 -15 31 -8 4 -15 18 -15 34 0 37 -10 61 -21 54 -5 -3 -9 9 -9 26&#10;0 18 -6 33 -15 36 -8 4 -15 18 -15 34 0 16 -7 35 -15 44 -8 8 -15 21 -15 29 0&#10;25 -11 47 -21 41 -5 -3 -9 9 -9 26 0 18 -6 33 -15 36 -8 4 -15 17 -15 30 0 14&#10;-7 27 -15 30 -8 4 -15 17 -15 29 0 32 -10 56 -21 49 -5 -3 -9 6 -9 20 0 13 -6&#10;31 -13 38 -8 7 -17 26 -21 41 -3 15 -11 25 -16 22 -6 -3 -10 3 -10 14 0 28&#10;-11 52 -21 45 -5 -3 -9 4 -9 16 0 11 -7 23 -15 26 -8 4 -15 17 -15 30 0 12 -6&#10;27 -14 31 -8 4 -16 19 -18 33 -2 14 -9 24 -16 23 -7 -2 -12 8 -12 22 0 14 -7&#10;28 -15 31 -8 4 -15 17 -15 30 0 14 -6 27 -14 30 -8 3 -16 19 -20 35 -3 17 -10&#10;28 -16 24 -5 -3 -10 3 -10 14 0 12 -7 21 -15 21 -9 0 -15 9 -15 25 0 13 -6 28&#10;-13 32 -8 4 -17 16 -20 26 -4 10 -11 15 -17 12 -6 -4 -10 6 -10 24 0 21 -5 31&#10;-15 31 -8 0 -15 6 -15 14 0 20 -21 31 -30 16 -4 -7 -13 -9 -19 -6 -16 11 -13&#10;26 4 20 10 -4 15 0 15 15 0 12 -7 24 -15 27 -8 4 -15 12 -15 20 0 8 -7 14 -15&#10;14 -10 0 -15 10 -15 30 0 20 -5 30 -15 30 -8 0 -15 7 -15 15 0 8 -7 15 -15 15&#10;-9 0 -15 9 -15 25 0 14 -7 28 -15 31 -8 4 -15 12 -15 20 0 8 -7 14 -15 14 -8&#10;0 -15 7 -15 15 0 8 -7 15 -15 15 -9 0 -15 9 -15 25 0 14 -7 28 -15 31 -8 4&#10;-15 12 -15 20 0 8 -7 14 -15 14 -8 0 -15 7 -15 15 0 8 -7 15 -15 15 -9 0 -15&#10;9 -15 25 0 14 -7 28 -15 31 -8 4 -15 12 -15 20 0 8 -7 14 -15 14 -8 0 -15 7&#10;-15 15 0 8 -7 15 -15 15 -8 0 -15 7 -15 15 0 8 -7 15 -15 15 -8 0 -15 9 -15&#10;20 0 11 -20 41 -45 66 -25 24 -45 49 -45 54 0 6 -7 10 -15 10 -8 0 -15 7 -15&#10;15 0 8 -7 15 -15 15 -8 0 -15 7 -15 15 0 8 -7 15 -15 15 -8 0 -15 7 -15 15 0&#10;8 -7 15 -15 15 -8 0 -15 9 -15 19 0 19 -222 251 -240 251 -5 0 -43 33 -84 73&#10;-128 122 -167 157 -176 157 -5 0 -22 14 -38 30 -17 17 -33 30 -37 30 -3 0 -19&#10;14 -36 31 -16 16 -38 31 -49 32 -11 1 -20 7 -20 14 0 7 -7 13 -15 13 -8 0 -15&#10;7 -15 15 0 8 -5 15 -11 15 -7 0 -17 7 -23 15 -6 9 -21 17 -34 18 -12 0 -22 7&#10;-22 14 0 7 -7 13 -15 13 -8 0 -15 7 -15 15 0 8 -6 15 -14 15 -8 0 -16 7 -20&#10;15 -3 8 -17 15 -31 15 -16 0 -25 6 -25 15 0 8 -7 15 -15 15 -8 0 -15 7 -15 15&#10;0 8 -7 15 -15 15 -9 0 -18 7 -21 15 -4 8 -17 15 -30 15 -15 0 -24 6 -24 15 0&#10;8 -6 15 -14 15 -8 0 -16 7 -20 15 -3 8 -17 15 -31 15 -16 0 -25 6 -25 15 0 8&#10;-7 15 -15 15 -8 0 -15 7 -15 15 0 10 -10 15 -30 15 -20 0 -30 5 -30 15 0 8 -6&#10;15 -14 15 -8 0 -16 7 -20 15 -3 8 -17 15 -31 15 -16 0 -25 6 -25 15 0 9 -9 15&#10;-25 15 -14 0 -25 5 -25 10 0 6 -8 14 -17 17 -10 4 -24 13 -31 20 -7 7 -22 13&#10;-33 13 -10 0 -19 7 -19 15 0 10 -10 15 -30 15 -20 0 -30 5 -30 15 0 9 -9 15&#10;-24 15 -13 0 -26 7 -30 15 -3 8 -10 15 -16 15 -6 0 -18 7 -26 15 -9 8 -24 15&#10;-34 15 -10 0 -20 7 -24 15 -3 8 -17 15 -31 15 -16 0 -25 6 -25 15 0 10 -10 15&#10;-30 15 -20 0 -30 5 -30 15 0 10 -10 15 -30 15 -20 0 -30 5 -30 15 0 10 -10 15&#10;-30 15 -20 0 -30 5 -30 15 0 10 -10 15 -30 15 -20 0 -30 5 -30 15 0 10 -10 15&#10;-29 15 -16 0 -31 6 -35 15 -3 9 -18 15 -36 15 -17 0 -29 4 -26 9 7 11 -18 21&#10;-55 21 -18 0 -28 5 -27 13 2 7 -9 13 -26 15 -16 2 -35 10 -43 18 -8 8 -30 14&#10;-49 14 -22 0 -33 4 -32 13 2 7 -12 13 -37 15 -22 2 -44 10 -48 18 -5 8 -23 14&#10;-43 14 -19 0 -33 4 -30 9 7 11 -17 21 -51 21 -13 0 -31 7 -39 15 -9 8 -33 15&#10;-55 15 -22 0 -38 4 -35 9 7 11 -27 21 -70 21 -19 0 -34 6 -38 15 -4 10 -20 15&#10;-51 15 -26 0 -44 4 -41 9 8 13 -19 21 -70 21 -28 0 -43 -4 -39 -10 4 -6 -8&#10;-10 -29 -10 -20 0 -36 5 -36 10 0 6 13 10 29 10 34 0 49 15 25 24 -26 10 -104&#10;7 -104 -4 0 -5 -13 -10 -29 -10 -17 0 -33 5 -36 10 -4 6 8 10 29 10 41 0 56&#10;15 23 24 -41 11 -105 7 -109 -7 -2 -11 -12 -11 -53 -1 l-50 12 47 1 c91 2 60&#10;31 -34 31 -26 0 -48 5 -50 12 -2 6 -32 13 -68 16 -35 3 -70 11 -78 18 -9 9&#10;-38 14 -87 14 -48 0 -75 4 -77 12 -7 19 -210 25 -206 7 2 -8 -5 -14 -14 -13&#10;-10 0 -37 2 -60 4 l-43 2 53 10 c28 5 52 13 52 18 0 14 -61 20 -217 20 -85 0&#10;-152 4 -149 9 3 4 -18 11 -47 15 -70 8 -752 5 -802 -4z m492 -572 c4 -7 10&#10;-753 13 -1657 l5 -1644 105 0 c58 -1 162 0 233 1 l127 2 0 1634 c0 899 4 1637&#10;8 1640 9 5 302 -40 477 -74 152 -30 316 -69 455 -107 135 -37 585 -186 645&#10;-213 11 -5 49 -20 85 -34 168 -64 576 -265 727 -357 34 -21 85 -50 113 -64 28&#10;-14 48 -30 45 -35 -4 -6 -261 -10 -688 -10 l-682 0 -75 32 c-67 29 -85 32&#10;-175 33 -84 0 -106 -3 -141 -22 -63 -34 -97 -66 -129 -125 -27 -47 -30 -63&#10;-30 -138 0 -75 4 -92 30 -144 52 -103 158 -166 279 -166 62 0 133 32 196 87&#10;l45 39 961 2 961 1 69 -55 c95 -75 381 -343 506 -473 299 -310 630 -777 853&#10;-1204 121 -233 255 -541 255 -588 0 -25 -21 -29 -161 -29 l-129 0 0 54 0 54&#10;-97 6 c-54 3 -125 4 -157 3 l-60 -3 -28 -118 -28 -118 31 -37 c48 -54 69 -61&#10;194 -55 61 2 197 6 303 8 177 4 196 2 212 -14 23 -23 148 -400 194 -588 97&#10;-388 185 -1013 147 -1036 -7 -5 -550 -7 -1207 -7 l-1194 2 0 -224 c0 -123 3&#10;-273 7 -332 l6 -108 1167 6 c642 4 1181 4 1198 1 31 -6 32 -8 32 -59 0 -48&#10;-30 -350 -46 -467 -4 -26 -13 -53 -21 -59 -10 -9 -314 -11 -1177 -10 l-1163 2&#10;-6 -23 c-4 -13 -4 -119 0 -235 l6 -213 1118 0 c615 0 1120 -3 1123 -8 23 -38&#10;-203 -716 -339 -1017 -7 -16 -34 -76 -59 -133 -271 -605 -735 -1220 -1321&#10;-1751 -221 -199 -338 -292 -560 -443 -457 -311 -916 -544 -1410 -715 -101 -35&#10;-420 -126 -565 -161 -284 -69 -743 -145 -783 -129 -16 6 -17 89 -17 1237 l0&#10;1230 -240 0 -241 0 6 -1238 c6 -1143 5 -1240 -10 -1255 -13 -14 -38 -17 -134&#10;-17 -78 0 -123 4 -133 12 -15 12 -17 121 -20 1253 l-4 1240 -237 3 c-186 2&#10;-237 0 -237 -10 5 -168 -7 -2439 -12 -2444 -9 -8 -164 15 -373 58 -646 130&#10;-1113 297 -1689 605 -533 285 -908 557 -1291 938 -208 206 -293 300 -466 515&#10;-227 282 -376 498 -532 776 -76 134 -222 433 -257 524 -18 47 -40 105 -51 130&#10;-17 42 -17 46 -1 58 14 11 123 13 552 10 l535 -3 37 23 c46 29 101 90 128 143&#10;16 30 22 61 22 116 1 65 -3 82 -33 141 -24 47 -48 77 -84 104 -61 46 -99 58&#10;-190 58 -85 0 -151 -28 -220 -91 -72 -67 -90 -108 -88 -206 l1 -83 -276 -2&#10;c-347 -1 -454 2 -469 14 -6 5 -33 75 -58 156 -26 81 -60 188 -76 238 -16 50&#10;-29 99 -29 108 0 15 89 16 1042 18 l1043 3 3 235 2 235 -1086 3 c-598 2 -1091&#10;5 -1095 8 -4 2 -13 28 -19 57 -15 68 -60 400 -60 441 l0 31 1127 0 1128 0 5&#10;210 c3 116 2 213 -1 218 -3 4 -498 7 -1100 7 -602 1 -1110 4 -1129 8 -34 7&#10;-35 10 -38 57 -3 56 34 500 43 515 4 6 407 10 1109 10 l1104 0 5 21 c3 12 5&#10;117 4 233 l-2 211 -1060 1 c-583 0 -1066 1 -1072 2 -19 3 -16 35 12 162 75&#10;339 219 781 361 1105 64 149 233 480 329 645 125 217 270 424 486 691 379 470&#10;748 807 1244 1136 226 150 331 210 605 346 315 157 518 241 823 342 405 134&#10;859 244 1027 248 l75 2 2 -1615 c3 -1504 4 -1616 20 -1627 12 -10 74 -13 224&#10;-13 114 0 215 3 223 6 15 6 16 147 16 1608 0 880 0 1622 0 1648 l0 47 93 4&#10;c50 1 113 4 139 5 29 1 50 -3 55 -10z" style="stroke: rgb(52, 66, 68); stroke-width: 0px; paint-order: fill; fill: rgb(52, 66, 68);"/>
    <path d="M5179 13967 c-94 -28 -153 -63 -206 -119 -184 -200 -178 -521 15&#10;-716 36 -37 79 -68 117 -85 33 -15 67 -31 75 -36 13 -7 15 -108 18 -794 l2&#10;-787 23 -5 c12 -3 85 -4 162 -3 l140 3 -4 785 c-2 432 -1 794 3 806 3 11 28&#10;35 55 52 68 45 164 150 195 215 37 79 49 148 44 248 -5 76 -11 98 -46 172 -70&#10;144 -167 229 -311 271 -77 23 -190 20 -282 -7z m221 -193 c68 -20 164 -111&#10;172 -162 2 -17 3 -32 1 -32 -3 0 -19 11 -36 24 -42 31 -147 66 -199 66 -61 0&#10;-123 -35 -198 -112 -36 -37 -71 -68 -78 -68 -16 0 -15 46 3 107 29 96 149 192&#10;241 193 22 0 64 -7 94 -16z" style="fill: rgb(52, 66, 68);"/>
    <path d="M8920 13078 c-245 -5 -500 -7 -567 -6 -95 2 -124 0 -128 -10 -3 -8&#10;-5 -170 -5 -361 l0 -348 68 -6 c37 -4 731 -7 1543 -7 l1477 0 7 126 c4 72 3&#10;130 -2 135 -5 5 -489 9 -1148 9 -687 0 -1146 4 -1155 10 -11 6 -16 32 -18 90&#10;-5 109 0 128 41 134 17 3 275 8 572 11 l540 5 7 53 c3 28 6 80 7 115 l1 62&#10;-397 -2 c-219 0 -598 -5 -843 -10z" style="fill: rgb(52, 66, 68);"/>
    <path d="M3713 12915 c-157 -34 -281 -132 -353 -278 -82 -167 -79 -320 10&#10;-506 48 -100 149 -208 226 -242 151 -66 264 -75 388 -32 76 26 80 27 90 9 39&#10;-66 76 -110 197 -238 75 -79 155 -156 177 -171 38 -27 46 -28 156 -29 64 -1&#10;119 1 122 5 12 11 -167 223 -368 437 -65 69 -118 133 -118 142 0 10 18 41 40&#10;70 128 168 144 343 49 546 -107 232 -350 345 -616 287z m234 -217 c23 -11 62&#10;-38 87 -59 74 -66 136 -217 107 -266 -6 -11 -11 -13 -11 -4 0 22 -50 114 -78&#10;145 -50 53 -177 94 -233 74 -17 -6 -36 -25 -49 -51 -12 -23 -30 -59 -41 -79&#10;-20 -40 -51 -50 -66 -23 -13 22 -119 -19 -127 -49 -13 -48 -5 -99 25 -159 20&#10;-39 26 -57 15 -48 -23 19 -63 107 -70 156 -15 91 39 239 109 304 24 22 57 47&#10;75 56 74 38 179 39 257 3z" style="fill: rgb(52, 66, 68);"/>
    <path d="M8394 12120 c-110 -44 -191 -149 -201 -261 -18 -194 121 -366 311&#10;-386 103 -11 247 54 325 145 31 36 48 47 71 48 16 1 611 2 1320 3 l1290 1 -2&#10;205 -3 206 -1364 -1 -1364 0 -66 27 c-91 37 -241 43 -317 13z" style="fill: rgb(52, 66, 68);"/>
    <path d="M2775 11639 c-136 -31 -263 -104 -338 -196 -60 -73 -112 -179 -128&#10;-261 -15 -80 -7 -240 16 -307 45 -131 181 -291 289 -341 178 -81 356 -81 522&#10;1 90 44 118 63 186 131 105 104 158 240 158 399 -1 204 -127 413 -305 507&#10;-131 69 -281 94 -400 67z m222 -231 c119 -55 233 -192 233 -278 l0 -32 -51 45&#10;c-29 25 -81 60 -118 79 -55 28 -75 33 -136 33 -65 0 -79 -4 -175 -52 -58 -29&#10;-132 -69 -165 -88 -33 -19 -64 -35 -69 -35 -5 0 -6 23 -3 51 18 146 144 280&#10;291 308 61 12 124 2 193 -31z" style="fill: rgb(52, 66, 68);"/>
    <path d="M4360 11230 c-328 -5 -348 -6 -400 -28 -131 -52 -192 -116 -230 -240&#10;-20 -64 -20 -98 -21 -2006 0 -2102 -3 -1991 52 -2097 25 -50 99 -123 148 -149&#10;98 -49 118 -50 1212 -50 562 0 1024 -2 1027 -4 9 -10 -143 -249 -183 -285 -14&#10;-13 -24 -26 -21 -28 2 -3 125 -5 272 -6 l267 -2 7 25 c4 14 15 70 24 125 10&#10;55 20 118 24 140 l7 40 453 0 c291 0 457 -4 462 -10 4 -5 20 -75 35 -155 15&#10;-80 31 -149 36 -154 12 -13 519 -14 519 -2 0 6 -19 35 -43 65 -79 102 -168&#10;233 -165 242 2 6 389 10 993 12 l990 2 68 23 c117 40 213 135 238 237 10 39&#10;13 469 14 2030 0 1884 -1 1983 -18 2032 -37 106 -110 176 -226 216 l-66 22&#10;-2565 5 c-1411 3 -2720 3 -2910 0z m5300 -476 c7 -7 9 -448 8 -1425 l-3 -1414&#10;-2755 0 -2755 0 0 1385 c0 762 3 1396 7 1410 4 14 20 32 35 41 25 14 302 15&#10;2740 15 1878 -1 2715 -4 2723 -12z m-72 -3353 c24 -5 48 -13 54 -19 17 -17 17&#10;-297 0 -314 -11 -11 -501 -13 -2695 -13 -1475 0 -2698 2 -2717 5 -29 4 -39 12&#10;-55 45 -17 34 -20 60 -20 165 l0 125 2140 3 c1177 1 2212 3 2300 5 392 7 954&#10;5 993 -2z" style="fill: rgb(52, 66, 68);"/>
    <path d="M7201 10059 c-246 -29 -444 -144 -564 -329 -69 -105 -56 -96 -122&#10;-75 -107 33 -307 4 -443 -64 -182 -92 -312 -261 -344 -450 -22 -127 33 -308&#10;123 -406 93 -100 175 -142 335 -170 79 -13 204 -15 940 -11 953 5 934 3 1081&#10;77 151 76 264 227 292 390 18 102 -3 210 -62 324 -88 170 -263 293 -428 303&#10;l-78 5 -38 66 c-132 232 -418 372 -692 340z m181 -308 c178 -51 285 -151 359&#10;-338 17 -43 36 -81 42 -85 7 -4 37 -5 68 -1 102 10 160 -3 226 -52 73 -55 103&#10;-105 103 -174 0 -89 -70 -189 -147 -210 -48 -14 -1820 -15 -1877 -1 -87 20&#10;-136 88 -136 188 0 74 14 106 78 174 132 142 356 194 572 133 49 -14 93 -25&#10;99 -25 5 0 15 17 22 38 38 119 133 252 216 304 58 35 172 67 243 68 36 0 95&#10;-9 132 -19z" style="fill: rgb(52, 66, 68);"/>
    <path d="M11065 10591 c-96 -27 -182 -95 -224 -176 -26 -52 -51 -148 -51 -201&#10;0 -121 59 -265 138 -334 146 -129 351 -145 532 -42 l65 37 397 -2 396 -2 6 47&#10;c3 26 7 74 8 107 l3 60 -347 5 c-206 3 -351 9 -356 15 -13 14 -45 213 -37 226&#10;4 6 17 8 29 5 33 -8 696 -10 704 -2 4 4 9 61 11 126 l3 118 -33 3 c-19 3 -218&#10;6 -444 7 -225 2 -441 8 -480 12 -111 15 -253 11 -320 -9z" style="fill: rgb(52, 66, 68);"/>
    <path d="M11225 6891 c-94 -24 -162 -60 -232 -125 -185 -171 -214 -437 -72&#10;-661 44 -70 131 -155 188 -185 123 -62 268 -66 411 -10 76 30 94 43 171 119&#10;183 182 225 379 125 584 -113 232 -343 340 -591 278z m207 -203 c22 -6 59 -29&#10;83 -50 45 -40 105 -144 105 -183 0 -20 -4 -18 -42 16 -50 47 -122 84 -193 100&#10;-101 22 -220 -37 -282 -141 -18 -30 -33 -66 -33 -80 -1 -23 -1 -23 -12 -6 -39&#10;68 23 230 116 301 69 52 171 69 258 43z" style="fill: rgb(52, 66, 68);"/>
    <path d="M2663 6476 c-103 -34 -167 -90 -212 -186 -35 -77 -37 -207 -2 -297&#10;65 -172 235 -250 420 -194 93 28 183 102 225 185 41 78 48 195 17 276 -32 84&#10;-86 148 -159 188 -57 31 -73 35 -155 38 -60 3 -107 -1 -134 -10z" style="fill: rgb(52, 66, 68);"/>
    <path d="M4073 6081 c-242 -248 -226 -224 -238 -373 -4 -42 -12 -81 -18 -86&#10;-7 -5 -38 -14 -71 -20 -152 -30 -292 -135 -360 -270 -90 -179 -79 -387 30&#10;-560 100 -158 234 -237 420 -249 76 -5 103 -2 163 16 205 62 354 222 395 423&#10;20 97 20 135 0 217 -36 147 -130 274 -271 367 l-86 56 6 55 c7 70 34 114 148&#10;243 149 170 282 339 276 353 -5 13 -130 58 -157 56 -8 0 -115 -103 -237 -228z&#10;m-108 -716 c28 -12 71 -41 97 -64 51 -45 108 -147 108 -192 0 -27 -1 -27 -54&#10;26 -31 30 -84 68 -122 86 -89 44 -181 47 -259 10 -54 -27 -157 -118 -186 -165&#10;l-18 -29 -6 25 c-9 34 10 128 34 176 69 135 258 194 406 127z" style="fill: rgb(52, 66, 68);"/>
    <path d="M9535 6305 c-5 -2 -38 -9 -73 -16 -35 -7 -67 -18 -72 -24 -6 -7 0&#10;-26 17 -51 41 -60 198 -246 318 -374 102 -110 185 -221 185 -247 0 -7 -39 -52&#10;-88 -100 -128 -129 -172 -230 -172 -398 1 -165 42 -266 154 -380 74 -76 133&#10;-112 228 -139 211 -61 462 58 592 281 54 92 69 155 64 277 -2 77 -8 101 -34&#10;156 -96 201 -282 329 -476 330 -35 0 -60 5 -65 12 -4 7 -10 39 -14 71 -9 72&#10;-27 95 -254 323 -93 94 -193 196 -221 228 -48 52 -62 60 -89 51z m762 -941&#10;c59 -28 126 -99 143 -151 7 -19 10 -37 7 -39 -3 -3 -34 15 -70 39 -78 53 -152&#10;80 -221 79 -100 -1 -166 -47 -233 -163 -25 -43 -49 -76 -54 -73 -13 8 -11 54&#10;6 110 56 189 250 280 422 198z" style="fill: rgb(52, 66, 68);"/>
    <path d="M5220 6241 c-238 -26 -275 -397 -47 -481 l42 -16 3 -472 c1 -313 -1&#10;-480 -8 -492 -6 -11 -23 -23 -38 -26 -51 -12 -148 -73 -193 -121 -101 -107&#10;-139 -205 -139 -354 0 -169 42 -275 151 -379 146 -140 364 -174 544 -85 200&#10;99 305 256 305 455 0 177 -112 370 -257 444 -27 13 -54 30 -60 38 -16 18 -30&#10;1002 -15 1011 15 10 2929 13 2939 3 4 -4 10 -223 11 -486 l4 -479 -71 -46&#10;c-123 -78 -174 -144 -223 -285 -25 -74 -34 -212 -19 -292 29 -147 132 -294&#10;244 -347 126 -60 218 -72 342 -46 348 74 526 416 377 725 -69 141 -183 235&#10;-347 285 l-70 22 -3 462 c-2 433 -1 462 15 467 139 43 218 139 217 264 0 91&#10;-49 162 -144 212 l-45 23 -1730 1 c-952 1 -1755 -2 -1785 -5z m3512 -1677 c78&#10;-25 163 -131 175 -219 7 -52 -10 -66 -27 -25 -18 44 -96 117 -150 141 -36 17&#10;-58 20 -108 15 -55 -5 -84 -13 -157 -47 -11 -6 -37 -37 -59 -69 -41 -64 -56&#10;-74 -56 -37 2 60 59 160 118 205 78 60 158 71 264 36z m-3292 -33 c57 -26 115&#10;-82 142 -135 24 -46 35 -157 21 -195 -8 -21 -11 -15 -16 37 -8 76 -26 113 -72&#10;148 -74 56 -175 70 -247 33 -95 -48 -188 -165 -188 -236 l-1 -38 -14 34 c-8&#10;18 -15 61 -15 95 0 108 68 213 170 264 57 28 153 25 220 -7z" style="fill: rgb(52, 66, 68);"/>
    <text style="fill: rgb(226, 231, 237); font-family: Roboto; font-size: 28px; font-weight: 700; white-space: pre;" transform="matrix(98.6875, 0, 0, -101.750168, -683363.697683, -148883.127219)" x="6935.09" y="-1463.89">SISMODE</text>
    <text style="white-space: pre; fill: rgb(51, 51, 51); font-family: Arial, sans-serif; font-size: 28px;" transform="matrix(1, 0, 0, -1, 0, 0)" x="6010.063" y="514.666">Escriba aquí su texto</text>
  </g>
</svg>